<mxfile host="app.diagrams.net" modified="2023-11-06T04:00:11.315Z" agent="Mozilla/5.0 (Windows NT 10.0; Win64; x64) AppleWebKit/537.36 (KHTML, like Gecko) Chrome/116.0.0.0 Safari/537.36 OPR/102.0.0.0" version="22.0.8" etag="sLIHBXxRPFu5oqnwZGF4" type="github">
  <diagram name="Page-1" id="kV9W1hdMgkMQqyMN_pre">
    <mxGraphModel>
      <root>
        <mxCell id="0" />
        <mxCell id="1" parent="0" />
      </root>
    </mxGraphModel>
  </diagram>
</mxfile>
